<?xml version="1.0" encoding="UTF-8" standalone="no"?>
<!DOCTYPE svg PUBLIC "-//W3C//DTD SVG 1.1//EN" "http://www.w3.org/Graphics/SVG/1.1/DTD/svg11.dtd">
<svg width="100%" height="100%" viewBox="0 0 200 200" version="1.1" xmlns="http://www.w3.org/2000/svg" xmlns:xlink="http://www.w3.org/1999/xlink" xml:space="preserve" xmlns:serif="http://www.serif.com/" style="fill-rule:evenodd;clip-rule:evenodd;">
    <g transform="matrix(1.93839,0,0,1.93839,-101.593,-74.4555)">
        <path d="M100,40C85,40 75,50 75,65C70,65 65,70 65,80C65,90 70,95 75,95C75,105 80,115 90,120C90,130 95,140 105,140C110,140 115,135 115,130C125,130 130,125 130,115C135,115 140,110 140,100C140,95 138,90 135,87C140,85 143,80 143,75C143,65 138,55 130,50C125,45 115,40 100,40Z" style="fill:rgb(132,134,247);fill-rule:nonzero;stroke:rgb(52,70,229);stroke-width:1.5px;"/>
    </g>
    <g transform="matrix(2,0,0,2,-108,-80)">
        <path d="M80,70C86.667,73.333 91.667,73.333 95,70" style="fill:none;fill-rule:nonzero;stroke:rgb(52,70,229);stroke-opacity:0.6;stroke-width:2px;"/>
    </g>
    <g transform="matrix(2,0,0,2,-108,-80)">
        <path d="M105,75C111.667,78.333 118.333,78.333 125,75" style="fill:none;fill-rule:nonzero;stroke:rgb(52,70,229);stroke-opacity:0.6;stroke-width:2px;"/>
    </g>
    <g transform="matrix(1.52683,0,0,2,-59.7806,-72.5)">
        <path d="M85,95C95,98.333 105,98.333 115,95" style="fill:none;fill-rule:nonzero;stroke:rgb(52,70,229);stroke-opacity:0.6;stroke-width:2px;"/>
    </g>
</svg>
